<svg xmlns="http://www.w3.org/2000/svg" fill="#ffff" version="1.1" viewBox="96.45 56.32 485.55 406.47">
    <g>
        <path d="m132.55 301.39c73.922-71.23 147-144.59 226.8-209.55h-29.734c77.504 63.559 144.65 138.99 216.38 208.6 19.375 18.816 49.113-10.809 29.68-29.68-71.734-69.664-138.82-145.04-216.33-208.6-4.0391-3.7539-9.3516-5.8438-14.867-5.8438s-10.828 2.0898-14.867 5.8438c-79.801 64.734-152.82 138.32-226.8 209.55-19.488 18.762 10.246 48.441 29.734 29.68z"/>
        <path d="m163.74 234.47c0 69.105 1.2305 138.21 2.8008 207.2 0.042969 5.5781 2.2773 10.914 6.2148 14.859 3.9375 3.9492 9.2656 6.1953 14.844 6.2539h102.59c5.543-0.085937 10.836-2.3281 14.754-6.2461 3.918-3.9219 6.1602-9.2109 6.2461-14.754l2.3516-112.89-21 21h102.26l-21-21v112.67-0.003906c0.011719 5.5859 2.2227 10.945 6.1523 14.914 3.9297 3.9727 9.2617 6.2383 14.848 6.3125h103.54c5.5391-0.10156 10.82-2.3477 14.738-6.2617 3.918-3.918 6.1602-9.2031 6.2617-14.738 0.78516-70.113 1.7539-140.22 2.9102-210.34 0.50391-26.992-41.496-27.047-42 0-1.2305 70.113-2.2031 140.22-2.9102 210.34l21-21h-103.54l21 21v-112.67c-0.058593-5.5625-2.2852-10.883-6.207-14.828-3.9258-3.9414-9.2305-6.1992-14.793-6.2852h-102.26c-5.5156 0.085938-10.785 2.3125-14.695 6.2109-3.9062 3.8945-6.1484 9.1602-6.2461 14.676l-2.3516 112.89 21-21-102.65 0.003906 21 21c-1.5664-69.105-2.7422-138.21-2.8008-207.2 0-26.992-42.055-27.047-42 0z"/>
    </g>
</svg>
