<?xml version="1.0" standalone="yes"?>
<svg xmlns="http://www.w3.org/2000/svg" width="512" height="512">
<path style="fill:#ffffff; stroke:none;" d="M0 0L0 234L1 234C1.06015 143.174 72.7504 57.4208 152 21.6944C176.983 10.4317 206.34 1.01822 234 1L212 0L165 0L0 0z"/>
<path style="fill:#efede9; stroke:none;" d="M59 419C68.7678 371.802 102.125 326.331 142 300.079C159.298 288.69 179.971 283.716 197 273C170.779 254.165 153.311 226.463 150.17 194C144.359 133.953 196.151 79.0077 256 79.0077C315.849 79.0077 367.641 133.953 361.83 194C358.689 226.463 341.221 254.165 315 273C331.334 283.278 351.368 287.864 368 298.695C408.81 325.272 443.017 370.762 453 419C467.071 410.859 478.156 386.183 485.247 372C511.601 319.291 519.112 257.526 506.424 200C499.454 168.395 486.631 138.898 468.667 112C452.903 88.3971 432.697 67.3959 410 50.375C321.525 -15.9755 195.79 -16.7404 106 47.4275C74.3653 70.0349 48.6695 100.09 29.8611 134C-8.00649 202.272 -10.2355 290.172 21.6944 361C28.194 375.418 35.8262 388.881 44.6698 402C48.5849 407.808 52.8452 415.439 59 419z"/>
<path style="fill:#ffffff; stroke:none;" d="M278 0L278 1C368.826 1.05988 454.579 72.7506 490.306 152C501.568 176.983 510.982 206.34 511 234L512 234L512 0L278 0z"/>
<path style="fill:#dddad5; stroke:none;" d="M249 79L249 80L263 80L249 79M240.667 80.3333L241.333 80.6667L240.667 80.3333z"/>
<path style="fill:#d3d0cb; stroke:none;" d="M242.667 80.3333L243.333 80.6667L242.667 80.3333z"/>
<path style="fill:#c7c3bd; stroke:none;" d="M197 274C145.689 290.696 100.819 325.202 76.2477 374C70.8358 384.748 66.398 395.562 62.6698 407C61.4882 410.625 58.7889 416.208 60.2114 420C65.7063 434.648 87.9141 449.68 100 458.87C144.563 492.753 199.883 511.992 256 511.992C312.148 511.992 367.414 492.77 412 458.87C424.086 449.68 446.294 434.648 451.789 420C453.211 416.208 450.512 410.625 449.33 407C445.602 395.562 441.164 384.748 435.752 374C411.157 325.155 366.354 290.71 315 274C332.178 258.189 347.647 243.831 355.333 221C360.747 204.916 362.869 187.857 360.575 171C349.125 86.884 242.406 49.7895 182 110.001C173.253 118.72 165.501 128.594 160.579 140C155.889 150.869 151.925 162.089 151.09 174C149.902 190.931 151.698 206.902 157.345 223C165.023 244.891 180.483 258.797 197 274z"/>
<path style="fill:#d3d0cb; stroke:none;" d="M268.667 80.3333L269.333 80.6667L268.667 80.3333z"/>
<path style="fill:#dddad5; stroke:none;" d="M270.667 80.3333L271.333 80.6667L270.667 80.3333M234.667 81.3333L235.333 81.6667L234.667 81.3333z"/>
<path style="fill:#d3d0cb; stroke:none;" d="M236.667 81.3333L237.333 81.6667L236.667 81.3333M274.667 81.3333L275.333 81.6667L274.667 81.3333z"/>
<path style="fill:#dddad5; stroke:none;" d="M276.667 81.3333L277.333 81.6667L276.667 81.3333M230 82L231 83L230 82z"/>
<path style="fill:#d3d0cb; stroke:none;" d="M231 82L232 83L231 82M280 82L281 83L280 82z"/>
<path style="fill:#dddad5; stroke:none;" d="M281 82L282 83L281 82M226.667 83.3333L227.333 83.6667L226.667 83.3333z"/>
<path style="fill:#d3d0cb; stroke:none;" d="M228 83L229 84L228 83M283 83L284 84L283 83z"/>
<path style="fill:#dddad5; stroke:none;" d="M284.667 83.3333L285.333 83.6667L284.667 83.3333M223 84L224 85L223 84z"/>
<path style="fill:#d3d0cb; stroke:none;" d="M224 84L225 85L224 84M287 84L288 85L287 84z"/>
<path style="fill:#dddad5; stroke:none;" d="M288 84L289 85L288 84M220 85L221 86L220 85z"/>
<path style="fill:#d3d0cb; stroke:none;" d="M221 85L222 86L221 85M290 85L291 86L290 85z"/>
<path style="fill:#dddad5; stroke:none;" d="M291 85L292 86L291 85M217 86L218 87L217 86z"/>
<path style="fill:#d3d0cb; stroke:none;" d="M218 86L219 87L218 86M293 86L294 87L293 86z"/>
<path style="fill:#dddad5; stroke:none;" d="M294 86L295 87L294 86M215 87L216 88L215 87M296 87L297 88L296 87z"/>
<path style="fill:#d3d0cb; stroke:none;" d="M213 88L214 89L213 88M298 88L299 89L298 88M211 89L212 90L211 89M300 89L301 90L300 89z"/>
<path style="fill:#dddad5; stroke:none;" d="M208 90L209 91L208 90z"/>
<path style="fill:#d3d0cb; stroke:none;" d="M209 90L210 91L209 90M302 90L303 91L302 90z"/>
<path style="fill:#dddad5; stroke:none;" d="M303 90L304 91L303 90M206 91L207 92L206 91z"/>
<path style="fill:#d3d0cb; stroke:none;" d="M207 91L208 92L207 91M304 91L305 92L304 91z"/>
<path style="fill:#dddad5; stroke:none;" d="M305 91L306 92L305 91z"/>
<path style="fill:#d3d0cb; stroke:none;" d="M205 92L206 93L205 92M306 92L307 93L306 92z"/>
<path style="fill:#dddad5; stroke:none;" d="M203 93L204 94L203 93M308 93L309 94L308 93M201 94L202 95L201 94M310 94L311 95L310 94z"/>
<path style="fill:#d3d0cb; stroke:none;" d="M200 95L201 96L200 95M311 95L312 96L311 95z"/>
<path style="fill:#dddad5; stroke:none;" d="M198 96L199 97L198 96M313 96L314 97L313 96M196 97L197 98L196 97M315 97L316 98L315 97M195 98L196 99L195 98M316 98L317 99L316 98z"/>
<path style="fill:#d3d0cb; stroke:none;" d="M194 99L195 100L194 99M317 99L318 100L317 99z"/>
<path style="fill:#dddad5; stroke:none;" d="M192 100L193 101L192 100M319 100L320 101L319 100M191 101L192 102L191 101M320 101L321 102L320 101z"/>
<path style="fill:#d3d0cb; stroke:none;" d="M190 102L191 103L190 102M321 102L322 103L321 102z"/>
<path style="fill:#dddad5; stroke:none;" d="M188 103L189 104L188 103M323 103L324 104L323 103M187 104L188 105L187 104M324 104L325 105L324 104M186 105L187 106L186 105M325 105L326 106L325 105M185 106L186 107L185 106M326 106L327 107L326 106z"/>
<path style="fill:#d3d0cb; stroke:none;" d="M184 107L185 108L184 107M327 107L328 108L327 107M183 108L184 109L183 108M328 108L329 109L328 108M182 109L183 110L182 109M329 109L330 110L329 109M181 110L182 111L181 110M330 110L331 111L330 110M180 111L181 112L180 111M331 111L332 112L331 111M179 112L180 113L179 112M332 112L333 113L332 112M178 113L179 114L178 113M333 113L334 114L333 113z"/>
<path style="fill:#dddad5; stroke:none;" d="M177 114L178 115L177 114M334 114L335 115L334 114M176 115L177 116L176 115M335 115L336 116L335 115M175 116L176 117L175 116M336 116L337 117L336 116M174 117L175 118L174 117M337 117L338 118L337 117z"/>
<path style="fill:#d3d0cb; stroke:none;" d="M173 119L174 120L173 119M338 119L339 120L338 119M172 120L173 121L172 120M339 120L340 121L339 120z"/>
<path style="fill:#dddad5; stroke:none;" d="M171 121L172 122L171 121M340 121L341 122L340 121z"/>
<path style="fill:#d3d0cb; stroke:none;" d="M170 123L171 124L170 123M341 123L342 124L341 123M169 124L170 125L169 124M342 124L343 125L342 124z"/>
<path style="fill:#dddad5; stroke:none;" d="M168 125L169 126L168 125M343 125L344 126L343 125z"/>
<path style="fill:#d3d0cb; stroke:none;" d="M167 127L168 128L167 127M344 127L345 128L344 127z"/>
<path style="fill:#dddad5; stroke:none;" d="M166 128L167 129L166 128M345 128L346 129L345 128M165 130L166 131L165 130M346 130L347 131L346 130z"/>
<path style="fill:#d3d0cb; stroke:none;" d="M164 132L165 133L164 132M347 132L348 133L347 132z"/>
<path style="fill:#dddad5; stroke:none;" d="M163 133L164 134L163 133M348 133L349 134L348 133M162 135L163 136L162 135M349 135L350 136L349 135M161 137L162 138L161 137M350 137L351 138L350 137M160 139L161 140L160 139M351 139L352 140L351 139z"/>
<path style="fill:#d3d0cb; stroke:none;" d="M160 140L161 141L160 140M351 140L352 141L351 140z"/>
<path style="fill:#dddad5; stroke:none;" d="M159 141L160 142L159 141M352 141L353 142L352 141z"/>
<path style="fill:#d3d0cb; stroke:none;" d="M159 142L160 143L159 142M352 142L353 143L352 142z"/>
<path style="fill:#dddad5; stroke:none;" d="M158 143L159 144L158 143M353 143L354 144L353 143z"/>
<path style="fill:#d3d0cb; stroke:none;" d="M158 144L159 145L158 144M353 144L354 145L353 144z"/>
<path style="fill:#dddad5; stroke:none;" d="M157 146L158 147L157 146M354 146L355 147L354 146z"/>
<path style="fill:#d3d0cb; stroke:none;" d="M157 147L158 148L157 147M354 147L355 148L354 147z"/>
<path style="fill:#dddad5; stroke:none;" d="M156 149L157 150L156 149M355 149L356 150L355 149M155 151L156 152L155 151M356 151L357 152L356 151z"/>
<path style="fill:#d3d0cb; stroke:none;" d="M155 152L156 153L155 152M356 152L357 153L356 152z"/>
<path style="fill:#dddad5; stroke:none;" d="M154 154L155 155L154 154M357 154L358 155L357 154z"/>
<path style="fill:#d3d0cb; stroke:none;" d="M154.333 155.667L154.667 156.333L154.333 155.667M357.333 155.667L357.667 156.333L357.333 155.667z"/>
<path style="fill:#dddad5; stroke:none;" d="M153 158L154 159L153 158M358 158L359 159L358 158z"/>
<path style="fill:#d3d0cb; stroke:none;" d="M153 159L154 160L153 159M358 159L359 160L358 159z"/>
<path style="fill:#dddad5; stroke:none;" d="M152 162L153 163L152 162M359 162L360 163L359 162z"/>
<path style="fill:#d3d0cb; stroke:none;" d="M152 163L153 164L152 163M359 163L360 164L359 163z"/>
<path style="fill:#dddad5; stroke:none;" d="M151.333 167.667L151.667 168.333L151.333 167.667M360.333 167.667L360.667 168.333L360.333 167.667z"/>
<path style="fill:#d3d0cb; stroke:none;" d="M151.333 169.667L151.667 170.333L151.333 169.667M360.333 169.667L360.667 170.333L360.333 169.667z"/>
<path style="fill:#dddad5; stroke:none;" d="M150 173L150 178L151 178L150 173M361 173L361 178L362 178L361 173z"/>
<path style="fill:#d3d0cb; stroke:none;" d="M150 178L150 183L151 183L150 178M361 178L361 183L362 183L361 178M150 187L150 191L151 191L150 187M361 187L361 191L362 191L361 187z"/>
<path style="fill:#dddad5; stroke:none;" d="M150 191L150 197L151 197L150 191M361 191L361 197L362 197L361 191z"/>
<path style="fill:#d3d0cb; stroke:none;" d="M151 200L152 201L151 200M360 200L361 201L360 200z"/>
<path style="fill:#dddad5; stroke:none;" d="M151.333 201.667L151.667 202.333L151.333 201.667M360.333 201.667L360.667 202.333L360.333 201.667z"/>
<path style="fill:#d3d0cb; stroke:none;" d="M152.333 205.667L152.667 206.333L152.333 205.667M359.333 205.667L359.667 206.333L359.333 205.667z"/>
<path style="fill:#dddad5; stroke:none;" d="M152.333 207.667L152.667 208.333L152.333 207.667M359.333 207.667L359.667 208.333L359.333 207.667z"/>
<path style="fill:#d3d0cb; stroke:none;" d="M153.333 210.667L153.667 211.333L153.333 210.667M358.333 210.667L358.667 211.333L358.333 210.667z"/>
<path style="fill:#dddad5; stroke:none;" d="M153 212L154 213L153 212M358 212L359 213L358 212z"/>
<path style="fill:#d3d0cb; stroke:none;" d="M154 214L155 215L154 214M357 214L358 215L357 214z"/>
<path style="fill:#dddad5; stroke:none;" d="M154 215L155 216L154 215M357 215L358 216L357 215z"/>
<path style="fill:#d3d0cb; stroke:none;" d="M155 217L156 218L155 217M356 217L357 218L356 217z"/>
<path style="fill:#dddad5; stroke:none;" d="M155 218L156 219L155 218M356 218L357 219L356 218z"/>
<path style="fill:#d3d0cb; stroke:none;" d="M156 220L157 221L156 220M355 220L356 221L355 220z"/>
<path style="fill:#dddad5; stroke:none;" d="M156 221L157 222L156 221M355 221L356 222L355 221z"/>
<path style="fill:#d3d0cb; stroke:none;" d="M157 223L158 224L157 223M354 223L355 224L354 223z"/>
<path style="fill:#dddad5; stroke:none;" d="M157 224L158 225L157 224M354 224L355 225L354 224M158 226L159 227L158 226M353 226L354 227L353 226z"/>
<path style="fill:#d3d0cb; stroke:none;" d="M159 228L160 229L159 228M352 228L353 229L352 228M160 230L161 231L160 230M351 230L352 231L351 230M161 232L162 233L161 232M350 232L351 233L350 232z"/>
<path style="fill:#dddad5; stroke:none;" d="M161 233L162 234L161 233M350 233L351 234L350 233z"/>
<path style="fill:#d3d0cb; stroke:none;" d="M162 234L163 235L162 234M349 234L350 235L349 234z"/>
<path style="fill:#dddad5; stroke:none;" d="M162 235L163 236L162 235M349 235L350 236L349 235z"/>
<path style="fill:#d3d0cb; stroke:none;" d="M163 236L164 237L163 236M348 236L349 237L348 236z"/>
<path style="fill:#dddad5; stroke:none;" d="M164 238L165 239L164 238M347 238L348 239L347 238M165 240L166 241L165 240M346 240L347 241L346 240z"/>
<path style="fill:#d3d0cb; stroke:none;" d="M166 241L167 242L166 241M345 241L346 242L345 241z"/>
<path style="fill:#dddad5; stroke:none;" d="M167 243L168 244L167 243M344 243L345 244L344 243z"/>
<path style="fill:#d3d0cb; stroke:none;" d="M168 244L169 245L168 244M343 244L344 245L343 244z"/>
<path style="fill:#dddad5; stroke:none;" d="M169 246L170 247L169 246M342 246L343 247L342 246z"/>
<path style="fill:#d3d0cb; stroke:none;" d="M170 247L171 248L170 247M341 247L342 248L341 247z"/>
<path style="fill:#dddad5; stroke:none;" d="M172 250L173 251L172 250M339 250L340 251L339 250M173 251L174 252L173 251M338 251L339 252L338 251z"/>
<path style="fill:#d3d0cb; stroke:none;" d="M174 252L175 253L174 252M337 252L338 253L337 252M175 253L176 254L175 253M336 253L337 254L336 253z"/>
<path style="fill:#dddad5; stroke:none;" d="M176 255L177 256L176 255M335 255L336 256L335 255M177 256L178 257L177 256M334 256L335 257L334 256M178 257L179 258L178 257M333 257L334 258L333 257M179 258L180 259L179 258M332 258L333 259L332 258M180 259L181 260L180 259M331 259L332 260L331 259M181 260L182 261L181 260M330 260L331 261L330 260M182 261L183 262L182 261M329 261L330 262L329 261M183 262L184 263L183 262M328 262L329 263L328 262M184 263L185 264L184 263M327 263L328 264L327 263M185 264L186 265L185 264M326 264L327 265L326 264M186 265L187 266L186 265M325 265L326 266L325 265z"/>
<path style="fill:#d3d0cb; stroke:none;" d="M188 266L189 267L188 266M323 266L324 267L323 266M189 267L190 268L189 267M322 267L323 268L322 267z"/>
<path style="fill:#dddad5; stroke:none;" d="M190 268L191 269L190 268M321 268L322 269L321 268z"/>
<path style="fill:#d3d0cb; stroke:none;" d="M193 270L194 271L193 270M318 270L319 271L318 270z"/>
<path style="fill:#dddad5; stroke:none;" d="M194 271L195 272L194 271M317 271L318 272L317 271M194 274L195 275L194 274z"/>
<path style="fill:#d3d0cb; stroke:none;" d="M195 274L196 275L195 274M316 274L317 275L316 274z"/>
<path style="fill:#dddad5; stroke:none;" d="M317 274L318 275L317 274M191 275L192 276L191 275z"/>
<path style="fill:#d3d0cb; stroke:none;" d="M192 275L193 276L192 275M319 275L320 276L319 275z"/>
<path style="fill:#dddad5; stroke:none;" d="M320 275L321 276L320 275M188 276L189 277L188 276z"/>
<path style="fill:#d3d0cb; stroke:none;" d="M189 276L190 277L189 276M322 276L323 277L322 276z"/>
<path style="fill:#dddad5; stroke:none;" d="M323 276L324 277L323 276M185 277L186 278L185 277z"/>
<path style="fill:#d3d0cb; stroke:none;" d="M186 277L187 278L186 277M325 277L326 278L325 277z"/>
<path style="fill:#dddad5; stroke:none;" d="M326 277L327 278L326 277z"/>
<path style="fill:#ffffff; stroke:none;" d="M0 278L0 512L234 512L234 511C146.766 510.942 59.5029 442.648 24.3086 366C15.5755 346.981 9.02703 327.469 4.66127 307C2.7424 298.003 3.48414 286.3 0 278z"/>
<path style="fill:#d3d0cb; stroke:none;" d="M183 278L184 279L183 278M328 278L329 279L328 278z"/>
<path style="fill:#ffffff; stroke:none;" d="M511 278C510.982 305.66 501.568 335.017 490.306 360C454.579 439.25 368.826 510.94 278 511L278 512L512 512L512 347L512 300L511 278z"/>
<path style="fill:#dddad5; stroke:none;" d="M180 279L181 280L180 279z"/>
<path style="fill:#d3d0cb; stroke:none;" d="M181 279L182 280L181 279M330 279L331 280L330 279z"/>
<path style="fill:#dddad5; stroke:none;" d="M331 279L332 280L331 279M178 280L179 281L178 280M333 280L334 281L333 280M175 281L176 282L175 281z"/>
<path style="fill:#d3d0cb; stroke:none;" d="M176 281L177 282L176 281M335 281L336 282L335 281z"/>
<path style="fill:#dddad5; stroke:none;" d="M336 281L337 282L336 281M173 282L174 283L173 282M338 282L339 283L338 282M171 283L172 284L171 283M340 283L341 284L340 283z"/>
<path style="fill:#d3d0cb; stroke:none;" d="M169 284L170 285L169 284M342 284L343 285L342 284M167 285L168 286L167 285M344 285L345 286L344 285M165 286L166 287L165 286M346 286L347 287L346 286M163 287L164 288L163 287M348 287L349 288L348 287M161 288L162 289L161 288M350 288L351 289L350 288z"/>
<path style="fill:#dddad5; stroke:none;" d="M159 289L160 290L159 289z"/>
<path style="fill:#d3d0cb; stroke:none;" d="M352 289L353 290L352 289z"/>
<path style="fill:#dddad5; stroke:none;" d="M157 290L158 291L157 290M354 290L355 291L354 290M155 291L156 292L155 291z"/>
<path style="fill:#d3d0cb; stroke:none;" d="M156 291L157 292L156 291z"/>
<path style="fill:#dddad5; stroke:none;" d="M356 291L357 292L356 291z"/>
<path style="fill:#d3d0cb; stroke:none;" d="M154 292L155 293L154 292M357 292L358 293L357 292z"/>
<path style="fill:#dddad5; stroke:none;" d="M152 293L153 294L152 293M359 293L360 294L359 293M150 294L151 295L150 294M361 294L362 295L361 294z"/>
<path style="fill:#d3d0cb; stroke:none;" d="M149 295L150 296L149 295M362 295L363 296L362 295z"/>
<path style="fill:#dddad5; stroke:none;" d="M147 296L148 297L147 296M364 296L365 297L364 296z"/>
<path style="fill:#d3d0cb; stroke:none;" d="M146 297L147 298L146 297M365 297L366 298L365 297z"/>
<path style="fill:#dddad5; stroke:none;" d="M366 297L367 298L366 297M144 298L145 299L144 298M367 298L368 299L367 298M142 299L143 300L142 299z"/>
<path style="fill:#d3d0cb; stroke:none;" d="M143 299L144 300L143 299z"/>
<path style="fill:#dddad5; stroke:none;" d="M369 299L370 300L369 299M141 300L142 301L141 300M370 300L371 301L370 300M139 301L140 302L139 301M372 301L373 302L372 301M138 302L139 303L138 302M373 302L374 303L373 302z"/>
<path style="fill:#d3d0cb; stroke:none;" d="M137 303L138 304L137 303M374 303L375 304L374 303z"/>
<path style="fill:#dddad5; stroke:none;" d="M135 304L136 305L135 304M376 304L377 305L376 304M134 305L135 306L134 305M377 305L378 306L377 305z"/>
<path style="fill:#d3d0cb; stroke:none;" d="M133 306L134 307L133 306M378 306L379 307L378 306z"/>
<path style="fill:#dddad5; stroke:none;" d="M131 307L132 308L131 307M380 307L381 308L380 307M130 308L131 309L130 308M381 308L382 309L381 308z"/>
<path style="fill:#d3d0cb; stroke:none;" d="M129 309L130 310L129 309M382 309L383 310L382 309z"/>
<path style="fill:#dddad5; stroke:none;" d="M126 311L127 312L126 311M385 311L386 312L385 311M125 312L126 313L125 312M386 312L387 313L386 312M124 313L125 314L124 313M387 313L388 314L387 313z"/>
<path style="fill:#d3d0cb; stroke:none;" d="M123 314L124 315L123 314M388 314L389 315L388 314M122 315L123 316L122 315M389 315L390 316L389 315z"/>
<path style="fill:#dddad5; stroke:none;" d="M119 317L120 318L119 317M392 317L393 318L392 317M118 318L119 319L118 318M393 318L394 319L393 318M117 319L118 320L117 319M394 319L395 320L394 319M116 320L117 321L116 320M395 320L396 321L395 320M115 321L116 322L115 321M396 321L397 322L396 321M114 322L115 323L114 322M397 322L398 323L397 322M113 323L114 324L113 323M398 323L399 324L398 323M112 324L113 325L112 324M399 324L400 325L399 324M111 325L112 326L111 325M400 325L401 326L400 325M110 326L111 327L110 326M401 326L402 327L401 326M109 327L110 328L109 327M402 327L403 328L402 327M108 328L109 329L108 328M403 328L404 329L403 328M107 329L108 330L107 329M404 329L405 330L404 329M106 330L107 331L106 330M405 330L406 331L405 330M406 331L407 332L406 331z"/>
<path style="fill:#d3d0cb; stroke:none;" d="M103 334L104 335L103 334M408 334L409 335L408 334M102 335L103 336L102 335M409 335L410 336L409 335M101 336L102 337L101 336M410 336L411 337L410 336z"/>
<path style="fill:#dddad5; stroke:none;" d="M100 337L101 338L100 337M411 337L412 338L411 337M99 338L100 339L99 338M412 338L413 339L412 338z"/>
<path style="fill:#d3d0cb; stroke:none;" d="M98 340L99 341L98 340M97 341L98 342L97 341M414 341L415 342L414 341z"/>
<path style="fill:#dddad5; stroke:none;" d="M96 342L97 343L96 342M415 342L416 343L415 342M95 343L96 344L95 343M416 343L417 344L416 343z"/>
<path style="fill:#d3d0cb; stroke:none;" d="M94 345L95 346L94 345M417 345L418 346L417 345M93 346L94 347L93 346M418 346L419 347L418 346z"/>
<path style="fill:#dddad5; stroke:none;" d="M92 347L93 348L92 347M419 347L420 348L419 347z"/>
<path style="fill:#d3d0cb; stroke:none;" d="M91 349L92 350L91 349M420 349L421 350L420 349z"/>
<path style="fill:#dddad5; stroke:none;" d="M90 350L91 351L90 350M421 350L422 351L421 350z"/>
<path style="fill:#d3d0cb; stroke:none;" d="M89 352L90 353L89 352M422 352L423 353L422 352z"/>
<path style="fill:#dddad5; stroke:none;" d="M88 353L89 354L88 353M423 353L424 354L423 353M87 354L88 355L87 354M424 354L425 355L424 354z"/>
<path style="fill:#d3d0cb; stroke:none;" d="M86 356L87 357L86 356M425 356L426 357L425 356z"/>
<path style="fill:#dddad5; stroke:none;" d="M85 357L86 358L85 357M426 357L427 358L426 357z"/>
<path style="fill:#d3d0cb; stroke:none;" d="M84 359L85 360L84 359M427 359L428 360L427 359z"/>
<path style="fill:#dddad5; stroke:none;" d="M428 360L429 361L428 360z"/>
<path style="fill:#d3d0cb; stroke:none;" d="M83 361L84 362L83 361M428 361L429 362L428 361z"/>
<path style="fill:#dddad5; stroke:none;" d="M82 362L83 363L82 362M429 362L430 363L429 362z"/>
<path style="fill:#d3d0cb; stroke:none;" d="M81 364L82 365L81 364M430 364L431 365L430 364M80 366L81 367L80 366M431 366L432 367L431 366z"/>
<path style="fill:#dddad5; stroke:none;" d="M79 367L80 368L79 367M432 367L433 368L432 367M78 369L79 370L78 369M433 369L434 370L433 369z"/>
<path style="fill:#d3d0cb; stroke:none;" d="M77 371L78 372L77 371M434 371L435 372L434 371M76 373L77 374L76 373M435 373L436 374L435 373M75 375L76 376L75 375M436 375L437 376L436 375M74 377L75 378L74 377M437 377L438 378L437 377M73 379L74 380L73 379M438 379L439 380L438 379z"/>
<path style="fill:#dddad5; stroke:none;" d="M72 380L73 381L72 380M439 380L440 381L439 380z"/>
<path style="fill:#d3d0cb; stroke:none;" d="M72 381L73 382L72 381M439 381L440 382L439 381M71 383L72 384L71 383M440 383L441 384L440 383z"/>
<path style="fill:#dddad5; stroke:none;" d="M70 385L71 386L70 385M441 385L442 386L441 385M69 387L70 388L69 387M442 387L443 388L442 387z"/>
<path style="fill:#d3d0cb; stroke:none;" d="M69 388L70 389L69 388M442 388L443 389L442 388M68 390L69 391L68 390M443 390L444 391L443 390z"/>
<path style="fill:#dddad5; stroke:none;" d="M67 392L68 393L67 392M444 392L445 393L444 392M66 394L67 395L66 394M445 394L446 395L445 394z"/>
<path style="fill:#d3d0cb; stroke:none;" d="M66 395L67 396L66 395M445 395L446 396L445 395z"/>
<path style="fill:#dddad5; stroke:none;" d="M65 397L66 398L65 397M446 397L447 398L446 397z"/>
<path style="fill:#d3d0cb; stroke:none;" d="M65 398L66 399L65 398M446 398L447 399L446 398z"/>
<path style="fill:#dddad5; stroke:none;" d="M64 400L65 401L64 400M447 400L448 401L447 400z"/>
<path style="fill:#d3d0cb; stroke:none;" d="M64 401L65 402L64 401M447 401L448 402L447 401z"/>
<path style="fill:#dddad5; stroke:none;" d="M63 403L64 404L63 403M448 403L449 404L448 403z"/>
<path style="fill:#d3d0cb; stroke:none;" d="M63 404L64 405L63 404M448 404L449 405L448 404z"/>
<path style="fill:#dddad5; stroke:none;" d="M62 406L63 407L62 406M449 406L450 407L449 406z"/>
<path style="fill:#d3d0cb; stroke:none;" d="M62 407L63 408L62 407M449 407L450 408L449 407z"/>
<path style="fill:#dddad5; stroke:none;" d="M61 409L62 410L61 409M450 409L451 410L450 409z"/>
<path style="fill:#d3d0cb; stroke:none;" d="M61 410L62 411L61 410M450 410L451 411L450 410z"/>
<path style="fill:#dddad5; stroke:none;" d="M60.3333 412.667L60.6667 413.333L60.3333 412.667M451.333 412.667L451.667 413.333L451.333 412.667z"/>
<path style="fill:#d3d0cb; stroke:none;" d="M60 414L61 415L60 414M451 414L452 415L451 414z"/>
<path style="fill:#dddad5; stroke:none;" d="M59 416L60 417L59 416M452 416L453 417L452 416z"/>
<path style="fill:#d3d0cb; stroke:none;" d="M59 417L60 418L59 417M452 417L453 418L452 417z"/>
<path style="fill:#dddad5; stroke:none;" d="M58 419L59 420L58 419M453 419L454 420L453 419M59 420L60 421L59 420M452 420L453 421L452 420M60 421L61 422L60 421M451 421L452 422L451 421z"/>
<path style="fill:#d3d0cb; stroke:none;" d="M61 422L62 423L61 422M450 422L451 423L450 422M62 423L63 424L62 423M449 423L450 424L449 423M63 424L66 427L63 424M448 424L446 427L448 424z"/>
<path style="fill:#dddad5; stroke:none;" d="M63 425L64 426L63 425M448 425L449 426L448 425M64 426L65 427L64 426M447 426L448 427L447 426M65 427L66 428L65 427M446 427L447 428L446 427M66 428L67 429L66 428M445 428L446 429L445 428M67 429L68 430L67 429M444 429L445 430L444 429M68 430L69 431L68 430z"/>
<path style="fill:#d3d0cb; stroke:none;" d="M443 430L444 431L443 430z"/>
<path style="fill:#dddad5; stroke:none;" d="M69 431L70 432L69 431z"/>
<path style="fill:#d3d0cb; stroke:none;" d="M442 431L443 432L442 431z"/>
<path style="fill:#dddad5; stroke:none;" d="M70 432L71 433L70 432z"/>
<path style="fill:#d3d0cb; stroke:none;" d="M441 432L442 433L441 432z"/>
<path style="fill:#dddad5; stroke:none;" d="M71 433L72 434L71 433z"/>
<path style="fill:#d3d0cb; stroke:none;" d="M440 433L441 434L440 433z"/>
<path style="fill:#dddad5; stroke:none;" d="M72 434L73 435L72 434M439 434L440 435L439 434M73 435L74 436L73 435M438 435L439 436L438 435M74 436L75 437L74 436M437 436L438 437L437 436z"/>
<path style="fill:#d3d0cb; stroke:none;" d="M75 437L76 438L75 437M436 437L437 438L436 437M76 438L77 439L76 438M435 438L436 439L435 438M77 439L78 440L77 439M434 439L435 440L434 439M78 440L79 441L78 440M433 440L434 441L433 440M79 441L80 442L79 441M432 441L433 442L432 441z"/>
<path style="fill:#dddad5; stroke:none;" d="M80 442L81 443L80 442M431 442L432 443L431 442M81 443L82 444L81 443M430 443L431 444L430 443M82 444L83 445L82 444M429 444L430 445L429 444M83 445L84 446L83 445M428 445L429 446L428 445M84 446L87 449L84 446z"/>
<path style="fill:#d3d0cb; stroke:none;" d="M85 446L86 447L85 446M426 446L424 449L426 446z"/>
<path style="fill:#dddad5; stroke:none;" d="M427 446L428 447L427 446z"/>
<path style="fill:#d3d0cb; stroke:none;" d="M86 447L87 448L86 447z"/>
<path style="fill:#dddad5; stroke:none;" d="M426 447L427 448L426 447z"/>
<path style="fill:#d3d0cb; stroke:none;" d="M87 448L88 449L87 448z"/>
<path style="fill:#dddad5; stroke:none;" d="M425 448L426 449L425 448z"/>
<path style="fill:#d3d0cb; stroke:none;" d="M88 449L89 450L88 449M423 449L424 450L423 449M89 450L90 451L89 450M422 450L423 451L422 450z"/>
<path style="fill:#dddad5; stroke:none;" d="M90 451L91 452L90 451M421 451L422 452L421 451M91 452L93 454L91 452z"/>
<path style="fill:#d3d0cb; stroke:none;" d="M92 452L93 453L92 452M419 452L417 455L419 452z"/>
<path style="fill:#dddad5; stroke:none;" d="M420 452L421 453L420 452z"/>
<path style="fill:#d3d0cb; stroke:none;" d="M93 453L95 455L93 453z"/>
<path style="fill:#dddad5; stroke:none;" d="M419 453L420 454L419 453z"/>
<path style="fill:#efede9; stroke:none;" d="M93 454L94 455L93 454M418 454L419 455L418 454z"/>
<path style="fill:#d3d0cb; stroke:none;" d="M95 455L96 456L95 455M416 455L417 456L416 455z"/>
<path style="fill:#dddad5; stroke:none;" d="M96 456L97 457L96 456M415 456L416 457L415 456M97 457L99 459L97 457z"/>
<path style="fill:#d3d0cb; stroke:none;" d="M98 457L99 458L98 457M413 457L412 459L413 457z"/>
<path style="fill:#dddad5; stroke:none;" d="M414 457L415 458L414 457z"/>
<path style="fill:#d3d0cb; stroke:none;" d="M99 458L100 459L99 458z"/>
<path style="fill:#dddad5; stroke:none;" d="M413 458L414 459L413 458z"/>
<path style="fill:#d3d0cb; stroke:none;" d="M100 459L101 460L100 459M411 459L412 460L411 459z"/>
<path style="fill:#dddad5; stroke:none;" d="M101 460L102 461L101 460z"/>
<path style="fill:#d3d0cb; stroke:none;" d="M102 460L104 462L102 460M409 460L408 462L409 460z"/>
<path style="fill:#dddad5; stroke:none;" d="M410 460L411 461L410 460z"/>
<path style="fill:#efede9; stroke:none;" d="M102 461L103 462L102 461M409 461L410 462L409 461z"/>
<path style="fill:#dddad5; stroke:none;" d="M104 462L105 463L104 462M407 462L408 463L407 462M105 463L107 465L105 463z"/>
<path style="fill:#d3d0cb; stroke:none;" d="M106 463L107 464L106 463M405 463L404 465L405 463z"/>
<path style="fill:#dddad5; stroke:none;" d="M406 463L407 464L406 463z"/>
<path style="fill:#d3d0cb; stroke:none;" d="M107 464L108 465L107 464z"/>
<path style="fill:#dddad5; stroke:none;" d="M405 464L406 465L405 464M108 465L109 466L108 465M403 465L404 466L403 465M109 466L110 467L109 466z"/>
<path style="fill:#d3d0cb; stroke:none;" d="M110 466L111 467L110 466M401 466L402 467L401 466z"/>
<path style="fill:#dddad5; stroke:none;" d="M402 466L403 467L402 466M111 467L112 468L111 467M400 467L401 468L400 467M112 468L113 469L112 468z"/>
<path style="fill:#d3d0cb; stroke:none;" d="M113 468L114 469L113 468M398 468L399 469L398 468z"/>
<path style="fill:#dddad5; stroke:none;" d="M399 468L400 469L399 468M114 469L115 470L114 469M397 469L398 470L397 469M115 470L116 471L115 470z"/>
<path style="fill:#d3d0cb; stroke:none;" d="M116 470L117 471L116 470M395 470L396 471L395 470z"/>
<path style="fill:#dddad5; stroke:none;" d="M396 470L397 471L396 470M117 471L118 472L117 471M394 471L395 472L394 471M118 472L119 473L118 472z"/>
<path style="fill:#d3d0cb; stroke:none;" d="M119 472L120 473L119 472M392 472L393 473L392 472z"/>
<path style="fill:#dddad5; stroke:none;" d="M393 472L394 473L393 472M120 473L122 475L120 473z"/>
<path style="fill:#d3d0cb; stroke:none;" d="M121 473L122 474L121 473M391 473L392 474L391 473M122 474L123 475L122 474M389.667 474.333L390.333 474.667L389.667 474.333z"/>
<path style="fill:#dddad5; stroke:none;" d="M123 475L124 476L123 475z"/>
<path style="fill:#d3d0cb; stroke:none;" d="M124 475L125 476L124 475M387 475L388 476L387 475z"/>
<path style="fill:#dddad5; stroke:none;" d="M388 475L389 476L388 475M125 476L126 477L125 476z"/>
<path style="fill:#d3d0cb; stroke:none;" d="M126 476L128 478L126 476M385 476L384 478L385 476z"/>
<path style="fill:#dddad5; stroke:none;" d="M386 476L387 477L386 476z"/>
<path style="fill:#efede9; stroke:none;" d="M126 477L127 478L126 477z"/>
<path style="fill:#dddad5; stroke:none;" d="M385 477L386 478L385 477M128 478L129 479L128 478z"/>
<path style="fill:#d3d0cb; stroke:none;" d="M129 478L130 479L129 478M382 478L383 479L382 478z"/>
<path style="fill:#dddad5; stroke:none;" d="M383 478L384 479L383 478M130 479L131 480L130 479z"/>
<path style="fill:#d3d0cb; stroke:none;" d="M131 479L132 480L131 479M380.667 479.333L381.333 479.667L380.667 479.333M132 480L133 481L132 480M379 480L380 481L379 480z"/>
<path style="fill:#dddad5; stroke:none;" d="M133 481L134 482L133 481z"/>
<path style="fill:#d3d0cb; stroke:none;" d="M134 481L135 482L134 481M377 481L378 482L377 481z"/>
<path style="fill:#dddad5; stroke:none;" d="M378 481L379 482L378 481M135 482L136 483L135 482z"/>
<path style="fill:#d3d0cb; stroke:none;" d="M136 482L137 483L136 482M375 482L376 483L375 482z"/>
<path style="fill:#dddad5; stroke:none;" d="M376 482L377 483L376 482M137 483L138 484L137 483z"/>
<path style="fill:#d3d0cb; stroke:none;" d="M138 483L139 484L138 483M373 483L374 484L373 483z"/>
<path style="fill:#dddad5; stroke:none;" d="M374 483L375 484L374 483M139 484L140 485L139 484z"/>
<path style="fill:#d3d0cb; stroke:none;" d="M140 484L141 485L140 484M371 484L372 485L371 484z"/>
<path style="fill:#dddad5; stroke:none;" d="M372 484L373 485L372 484M141 485L142 486L141 485z"/>
<path style="fill:#d3d0cb; stroke:none;" d="M142 485L143 486L142 485M369 485L370 486L369 485z"/>
<path style="fill:#dddad5; stroke:none;" d="M370 485L371 486L370 485M143 486L144 487L143 486z"/>
<path style="fill:#d3d0cb; stroke:none;" d="M144 486L145 487L144 486M367 486L368 487L367 486z"/>
<path style="fill:#dddad5; stroke:none;" d="M368 486L369 487L368 486M145 487L146 488L145 487z"/>
<path style="fill:#d3d0cb; stroke:none;" d="M146 487L147 488L146 487M365 487L366 488L365 487z"/>
<path style="fill:#dddad5; stroke:none;" d="M366 487L367 488L366 487M147 488L148 489L147 488z"/>
<path style="fill:#d3d0cb; stroke:none;" d="M148.667 488.333L149.333 488.667L148.667 488.333M362.667 488.333L363.333 488.667L362.667 488.333z"/>
<path style="fill:#dddad5; stroke:none;" d="M364 488L365 489L364 488M150 489L151 490L150 489z"/>
<path style="fill:#d3d0cb; stroke:none;" d="M151 489L152 490L151 489M360 489L361 490L360 489z"/>
<path style="fill:#dddad5; stroke:none;" d="M361 489L362 490L361 489M152 490L153 491L152 490z"/>
<path style="fill:#d3d0cb; stroke:none;" d="M153 490L154 491L153 490M358 490L359 491L358 490z"/>
<path style="fill:#dddad5; stroke:none;" d="M359 490L360 491L359 490M154 491L155 492L154 491z"/>
<path style="fill:#d3d0cb; stroke:none;" d="M155 491L156 492L155 491M356 491L357 492L356 491z"/>
<path style="fill:#dddad5; stroke:none;" d="M357 491L358 492L357 491M156 492L157 493L156 492z"/>
<path style="fill:#d3d0cb; stroke:none;" d="M157.667 492.333L158.333 492.667L157.667 492.333M353.667 492.333L354.333 492.667L353.667 492.333z"/>
<path style="fill:#dddad5; stroke:none;" d="M355 492L356 493L355 492M159 493L160 494L159 493z"/>
<path style="fill:#d3d0cb; stroke:none;" d="M160 493L161 494L160 493M351 493L352 494L351 493z"/>
<path style="fill:#dddad5; stroke:none;" d="M352 493L353 494L352 493M161.667 494.333L162.333 494.667L161.667 494.333z"/>
<path style="fill:#d3d0cb; stroke:none;" d="M163 494L164 495L163 494M348 494L348 495L351 495L348 494z"/>
<path style="fill:#dddad5; stroke:none;" d="M164 495L165 496L164 495z"/>
<path style="fill:#d3d0cb; stroke:none;" d="M165.667 495.333L166.333 495.667L165.667 495.333M346 495L347 496L346 495z"/>
<path style="fill:#dddad5; stroke:none;" d="M347 495L348 496L347 495z"/>
<path style="fill:#efede9; stroke:none;" d="M166 496L167 497L166 496z"/>
<path style="fill:#dddad5; stroke:none;" d="M167 496L168 497L167 496z"/>
<path style="fill:#d3d0cb; stroke:none;" d="M168 496L169 497L168 496M343 496L344 497L343 496z"/>
<path style="fill:#dddad5; stroke:none;" d="M344 496L345 497L344 496z"/>
<path style="fill:#efede9; stroke:none;" d="M345 496L346 497L345 496z"/>
<path style="fill:#dddad5; stroke:none;" d="M169.667 497.333L170.333 497.667L169.667 497.333z"/>
<path style="fill:#d3d0cb; stroke:none;" d="M171 497L172 498L171 497M340.667 497.333L341.333 497.667L340.667 497.333z"/>
<path style="fill:#dddad5; stroke:none;" d="M342 497L343 498L342 497M172.667 498.333L173.333 498.667L172.667 498.333z"/>
<path style="fill:#d3d0cb; stroke:none;" d="M174 498L175 499L174 498M337.667 498.333L338.333 498.667L337.667 498.333z"/>
<path style="fill:#dddad5; stroke:none;" d="M339 498L340 499L339 498M175.667 499.333L176.333 499.667L175.667 499.333z"/>
<path style="fill:#d3d0cb; stroke:none;" d="M177 499L178 500L177 499M334.667 499.333L335.333 499.667L334.667 499.333z"/>
<path style="fill:#dddad5; stroke:none;" d="M336 499L337 500L336 499M178.667 500.333L179.333 500.667L178.667 500.333z"/>
<path style="fill:#d3d0cb; stroke:none;" d="M180 500L181 501L180 500M331 500L332 501L331 500z"/>
<path style="fill:#dddad5; stroke:none;" d="M332.667 500.333L333.333 500.667L332.667 500.333M181.667 501.333L182.333 501.667L181.667 501.333z"/>
<path style="fill:#d3d0cb; stroke:none;" d="M183 501L184 502L183 501M328 501L329 502L328 501z"/>
<path style="fill:#dddad5; stroke:none;" d="M329.667 501.333L330.333 501.667L329.667 501.333M185 502L186 503L185 502z"/>
<path style="fill:#d3d0cb; stroke:none;" d="M186.667 502.333L187.333 502.667L186.667 502.333M324.667 502.333L325.333 502.667L324.667 502.333z"/>
<path style="fill:#dddad5; stroke:none;" d="M326 502L327 503L326 502M188.667 503.333L189.333 503.667L188.667 503.333z"/>
<path style="fill:#d3d0cb; stroke:none;" d="M190.667 503.333L191.333 503.667L190.667 503.333M320.667 503.333L321.333 503.667L320.667 503.333z"/>
<path style="fill:#dddad5; stroke:none;" d="M322.667 503.333L323.333 503.667L322.667 503.333z"/>
<path style="fill:#efede9; stroke:none;" d="M192 504L193 505L192 504z"/>
<path style="fill:#dddad5; stroke:none;" d="M193 504L194 505L193 504z"/>
<path style="fill:#d3d0cb; stroke:none;" d="M194.667 504.333L195.333 504.667L194.667 504.333M316.667 504.333L317.333 504.667L316.667 504.333z"/>
<path style="fill:#dddad5; stroke:none;" d="M318.667 504.333L319.333 504.667L318.667 504.333M196.667 505.333L197.333 505.667L196.667 505.333z"/>
<path style="fill:#d3d0cb; stroke:none;" d="M198.667 505.333L199.333 505.667L198.667 505.333M312 505L312 506L316 506L312 505z"/>
<path style="fill:#dddad5; stroke:none;" d="M201.667 506.333L202.333 506.667L201.667 506.333z"/>
<path style="fill:#d3d0cb; stroke:none;" d="M203.667 506.333L204.333 506.667L203.667 506.333M307.667 506.333L308.333 506.667L307.667 506.333z"/>
<path style="fill:#dddad5; stroke:none;" d="M309.667 506.333L310.333 506.667L309.667 506.333z"/>
<path style="fill:#efede9; stroke:none;" d="M205 507L206 508L205 507z"/>
<path style="fill:#dddad5; stroke:none;" d="M206.667 507.333L207.333 507.667L206.667 507.333z"/>
<path style="fill:#d3d0cb; stroke:none;" d="M208.667 507.333L209.333 507.667L208.667 507.333M302.667 507.333L303.333 507.667L302.667 507.333z"/>
<path style="fill:#dddad5; stroke:none;" d="M304.667 507.333L305.333 507.667L304.667 507.333z"/>
<path style="fill:#efede9; stroke:none;" d="M306 507L307 508L306 507z"/>
<path style="fill:#dddad5; stroke:none;" d="M211.667 508.333L212.333 508.667L211.667 508.333z"/>
<path style="fill:#d3d0cb; stroke:none;" d="M213 508L213 509L216 509L213 508M296 508L296 509L299 509L296 508z"/>
<path style="fill:#dddad5; stroke:none;" d="M299.667 508.333L300.333 508.667L299.667 508.333z"/>
<path style="fill:#efede9; stroke:none;" d="M216.667 509.333L217.333 509.667L216.667 509.333z"/>
<path style="fill:#dddad5; stroke:none;" d="M218.667 509.333L219.333 509.667L218.667 509.333z"/>
<path style="fill:#d3d0cb; stroke:none;" d="M220 509L220 510L223 510L220 509M289 509L289 510L292 510L289 509z"/>
<path style="fill:#dddad5; stroke:none;" d="M292.667 509.333L293.333 509.667L292.667 509.333z"/>
<path style="fill:#efede9; stroke:none;" d="M294.667 509.333L295.333 509.667L294.667 509.333z"/>
<path style="fill:#dddad5; stroke:none;" d="M224 510L224 511L227 511L224 510z"/>
<path style="fill:#d3d0cb; stroke:none;" d="M227 510L227 511L233 511L227 510M280 510L280 511L285 511L280 510z"/>
<path style="fill:#dddad5; stroke:none;" d="M285 510L285 511L288 511L285 510z"/>
<path style="fill:#efede9; stroke:none;" d="M234 511L235 512L234 511z"/>
<path style="fill:#dddad5; stroke:none;" d="M235 511L235 512L238 512L235 511z"/>
<path style="fill:#d3d0cb; stroke:none;" d="M238 511L238 512L250 512L238 511M262 511L262 512L274 512L262 511z"/>
<path style="fill:#dddad5; stroke:none;" d="M274 511L274 512L277 512L274 511z"/>
<path style="fill:#efede9; stroke:none;" d="M277 511L278 512L277 511z"/>
</svg>
