<svg xmlns="http://www.w3.org/2000/svg" xmlns:xlink="http://www.w3.org/1999/xlink" fill="#ffff" version="1.1" viewBox="128.79 58.79 442.42 442.42">
 <g>
  <path d="m350 58.789c-122.04 0-221.21 99.172-221.21 221.21s99.172 221.21 221.21 221.21 221.21-99.172 221.21-221.21-99.172-221.21-221.21-221.21zm0 22.398c109.93 0 198.81 88.879 198.81 198.81 0 56.605-23.602 107.58-61.469 143.76-13.094-52.547-47.012-94.23-90.344-112.01 27-16.109 45.203-45.535 45.203-79.156 0-50.789-41.414-92.191-92.203-92.191s-92.191 41.402-92.191 92.191c0 33.621 18.203 63.043 45.203 79.156-43.34 17.777-77.25 59.461-90.344 112.02-37.875-36.184-61.48-87.164-61.48-143.77 0-109.93 88.879-198.81 198.81-198.81zm0 81.617c38.684 0 69.805 31.109 69.805 69.793s-31.121 69.805-69.805 69.805-69.793-31.121-69.793-69.805 31.109-69.793 69.793-69.793zm0 162c56.109 0 105.61 47.395 117.88 115.36-32.969 24.285-73.715 38.652-117.88 38.652-44.152 0-84.895-14.363-117.86-38.641 12.266-67.977 61.754-115.37 117.86-115.37z"/>
 </g>
</svg>